<svg width="200" height="200" viewBox="0 0 200 200" fill="none" xmlns="http://www.w3.org/2000/svg">
<path d="M42.8572 141.905H35.2381C26.8223 141.905 20 135.082 20 126.667V58.0952C20 49.6795 26.8223 42.8572 35.2381 42.8572H103.81C112.225 42.8572 119.048 49.6795 119.048 58.0952V126.667C119.048 135.082 112.225 141.905 103.81 141.905H96.1905M130.476 141.905H126.667C122.459 141.905 119.048 138.494 119.048 134.286V69.5238C119.048 65.3159 122.459 61.9048 126.667 61.9048H145.862C148.176 61.9048 150.365 62.9569 151.811 64.7642L178.33 97.913C179.411 99.264 180 100.943 180 102.673V134.286C180 138.494 176.589 141.905 172.381 141.905M88.5714 138.095C88.5714 148.615 80.0435 157.143 69.5238 157.143C59.0041 157.143 50.4762 148.615 50.4762 138.095C50.4762 127.576 59.0041 119.048 69.5238 119.048C80.0435 119.048 88.5714 127.576 88.5714 138.095ZM168.571 138.095C168.571 148.615 160.044 157.143 149.524 157.143C139.004 157.143 130.476 148.615 130.476 138.095C130.476 127.576 139.004 119.048 149.524 119.048C160.044 119.048 168.571 127.576 168.571 138.095Z" stroke="black" stroke-width="2" stroke-linecap="round"/>
</svg>
